<?xml version="1.0" encoding="utf-8"?>
<!-- Generator: Adobe Illustrator 21.0.0, SVG Export Plug-In . SVG Version: 6.00 Build 0)  -->
<svg version="1.1" id="man" xmlns="http://www.w3.org/2000/svg" xmlns:xlink="http://www.w3.org/1999/xlink" x="0px" y="0px"
	 width="256px" height="256px" viewBox="0 0 256 256" enable-background="new 0 0 256 256" xml:space="preserve">
<rect fill="#C6D8E1" width="256" height="256"/>
<path fill="#7F96A6" d="M110.8,43.9c-2.2,15.6-15.9,29-19.5,43.9c-3.3,14.1-2.9,28.9-3.7,43.4c-0.7,13.4-1.1,27-1.1,40.5
	c0,6.5-2.6,31.4-1.8,37c14.7,17.6,74.8,7.8,77.1,4.4c1.3-1.9-1.4-18-0.7-26.9c-1.2-22.1,0.5-51.6,1.1-66.1
	c0.5-13.4,3.3-25.9,3.3-39.4s-3.8-23.8-10.3-35.3c-2.3-4.1-4.8-8-8-11.5c-4.4-4.8-4.9-4.2-10-0.7c-3.8,2.6-6.6,5.1-11,6.6
	c-3.6,1.3-9.4,3.3-15.8,4.2"/>
<path fill="#C6D8E1" d="M157,118.8c4.9-29.3,2.3-48.7-7.8-57.7c-8.1-7.2-17.8-5-19.3-4.6c-4.6,0.6-8.5,2.9-11.3,6.8
	c-11.4,15.6-4.9,52.1-4.2,56.2v0.1v0.1l0.2,0.8h0.1c2,4.5,13.8,5.7,21,5.7s19.1-1.3,21-5.8l0,0l0,0c0.2-0.4,0.3-0.8,0.3-1.3
	C157,118.9,157,118.9,157,118.8z M135.7,122c-10.8,0-16.1-2.2-17.2-3.1c1.1-0.9,6.3-3.1,17.2-3.1s16.1,2.2,17.2,3.1
	C151.8,119.8,146.5,122,135.7,122z M121.7,65.6c2.2-3,5.1-4.7,8.7-5.2h0.5l0.1-0.1c1.2-0.3,9-1.9,15.4,3.8c6,5.4,11.9,18.6,7.1,50.8
	c-4.5-2.2-12.4-2.9-17.8-2.9c-5.5,0-13.6,0.7-18.1,3C116,103.3,113.4,77,121.7,65.6z"/>
<path fill="#C6D8E1" d="M147.5,32.6l-2-0.2l-0.2,0.9c-0.5,2.5-5.7,6.3-14.4,10.3c-6.7,3.4-16,5.3-19.9,4.2l-1-0.3l-1.3,3.8l1,0.3
	c1.1,0.3,2.3,0.4,3.9,0.4c5.4,0,13.3-2,19.2-4.9c15.3-7.2,16.3-11.5,16.6-13.2l0.2-1L147.5,32.6z"/>
</svg>
